<?xml version="1.0" standalone="no"?>
<!DOCTYPE svg PUBLIC "-//W3C//DTD SVG 20010904//EN"
 "http://www.w3.org/TR/2001/REC-SVG-20010904/DTD/svg10.dtd">
<svg version="1.0" xmlns="http://www.w3.org/2000/svg"
 width="256.000000pt" height="256.000000pt" viewBox="0 0 256.000000 256.000000"
 preserveAspectRatio="xMidYMid meet">
<metadata>
Created by potrace 1.14, written by Peter Selinger 2001-2017
</metadata>
<g transform="translate(0.000000,256.000000) scale(0.100000,-0.100000)"
fill="#000000" stroke="none">
<path d="M1372 2028 c-6 -13 -13 -43 -15 -68 -3 -24 -10 -46 -16 -48 -6 -2
-11 -22 -11 -43 0 -24 -4 -38 -10 -34 -6 4 -10 -6 -10 -22 0 -16 -5 -34 -11
-40 -12 -12 -18 -44 -20 -108 -1 -22 -4 -34 -6 -27 -7 19 -19 14 -19 -7 0 -11
5 -17 11 -14 5 3 4 0 -2 -8 -7 -7 -13 -25 -13 -40 0 -15 -5 -29 -10 -31 -6 -2
-12 -23 -14 -48 -2 -24 -8 -46 -15 -48 -6 -2 -11 -23 -11 -47 0 -25 -6 -50
-15 -59 -8 -8 -15 -28 -15 -45 0 -17 -4 -31 -10 -31 -5 0 -10 -13 -10 -28 0
-15 -6 -34 -12 -41 -7 -8 -8 -11 -2 -8 13 8 6 -40 -7 -49 -5 -3 -9 -20 -9 -37
0 -18 -7 -42 -15 -54 -9 -12 -15 -26 -14 -30 4 -25 -2 -53 -11 -48 -6 4 -10
-10 -10 -35 0 -26 -4 -39 -10 -35 -6 4 -10 3 -9 -2 1 -4 0 -10 -1 -13 -4 -10
-12 -76 -12 -105 0 -16 -3 -24 -5 -17 -3 6 -9 12 -14 12 -6 0 -5 -9 2 -21 8
-15 8 -19 0 -15 -7 5 -11 -2 -11 -16 0 -13 -6 -30 -12 -36 -10 -10 -10 -15 1
-21 9 -6 10 -10 2 -12 -7 -3 -13 -18 -15 -34 -5 -42 -5 -42 -15 -26 -7 10 -9
1 -8 -29 2 -29 7 -45 17 -47 13 -4 13 -3 0 6 -9 7 -10 11 -3 11 6 0 15 -4 18
-10 3 -6 11 -10 16 -10 6 0 7 5 4 10 -3 6 -1 10 4 10 6 0 11 -5 11 -12 0 -9 3
-9 12 0 7 7 17 12 22 12 6 0 4 -5 -4 -10 -13 -8 -12 -10 3 -10 9 0 17 6 17 13
0 8 4 7 11 -3 8 -11 12 -12 16 -2 2 6 9 12 14 12 6 0 7 -4 4 -10 -3 -5 -1 -10
4 -10 6 0 11 6 11 13 0 9 3 8 9 -2 6 -9 11 -10 15 -2 4 6 13 11 19 11 7 0 6
-4 -3 -10 -12 -8 -9 -10 13 -10 15 0 27 5 27 11 0 5 -5 7 -12 3 -7 -4 -8 -3
-4 5 6 9 11 9 21 1 14 -12 30 12 26 42 -1 10 3 18 9 18 7 0 8 6 0 19 -7 14 -7
22 2 27 6 4 8 3 4 -4 -3 -6 -3 -13 1 -15 5 -3 9 22 11 56 1 33 8 64 14 68 7 4
14 32 16 61 2 29 7 55 12 58 4 3 10 26 12 53 5 43 18 79 18 47 0 -7 3 -11 6
-8 3 4 0 16 -6 28 -8 15 -8 20 -1 16 7 -5 11 6 11 33 0 22 5 41 12 43 7 3 13
18 14 34 1 16 2 39 3 52 1 16 5 21 14 16 7 -5 6 0 -3 11 -9 11 -10 16 -2 11 8
-5 12 1 13 21 1 15 2 45 3 65 1 20 6 41 10 45 5 4 6 0 3 -9 -4 -10 -2 -18 3
-18 9 0 15 62 11 98 -1 7 6 15 15 19 16 6 16 7 -2 14 -18 7 -18 8 1 8 17 1 17
3 5 11 -10 6 -11 10 -2 10 7 0 12 14 12 36 0 19 4 33 8 30 8 -5 13 24 16 92 1
37 3 40 14 25 12 -16 13 -16 11 7 -5 56 1 91 14 84 8 -5 7 -2 -2 9 -8 10 -11
20 -7 24 3 3 6 0 6 -7 0 -17 13 -4 16 15 1 8 -2 12 -8 9 -6 -4 -6 2 1 14 6 11
11 30 11 42 0 12 5 18 10 15 6 -3 10 -1 10 4 0 6 -4 11 -10 11 -5 0 -10 5 -10
11 0 5 4 8 9 5 11 -7 17 18 17 72 -1 35 1 39 11 26 9 -13 11 -10 9 20 -1 19
-5 38 -10 43 -5 4 -6 2 -2 -5 6 -9 -1 -12 -28 -10 -19 1 -32 6 -30 10 3 4 -2
8 -11 8 -10 0 -13 -5 -9 -12 5 -8 0 -7 -11 2 -11 9 -16 10 -11 3 4 -7 3 -13
-3 -13 -5 0 -12 6 -14 13 -4 10 -6 10 -6 0 -1 -7 -9 -13 -18 -13 -15 0 -16 2
-3 10 8 5 10 10 5 10 -6 0 -17 -6 -24 -12 -11 -10 -13 -10 -7 0 4 6 2 12 -3
12 -6 0 -11 -6 -11 -12 0 -10 -2 -10 -8 0 -6 9 -11 6 -20 -10z m-62 -282 c0
-3 -4 -8 -10 -11 -5 -3 -10 -1 -10 4 0 6 5 11 10 11 6 0 10 -2 10 -4z"/>
<path d="M1548 2043 c7 -3 16 -2 19 1 4 3 -2 6 -13 5 -11 0 -14 -3 -6 -6z"/>
<path d="M752 1783 c-6 -2 -9 -9 -6 -15 3 -5 0 -8 -7 -7 -15 3 -87 -29 -106
-48 -7 -6 -24 -10 -38 -9 -22 3 -23 1 -13 -12 11 -13 10 -15 -4 -9 -10 3 -18
2 -18 -3 0 -5 -7 -7 -15 -4 -9 4 -15 0 -15 -10 0 -11 -9 -16 -26 -16 -14 0
-23 -4 -19 -10 6 -9 -10 -14 -42 -13 -7 1 -13 -5 -13 -13 0 -12 -12 -16 -37
-13 -3 0 -10 -6 -15 -15 -5 -8 -15 -13 -23 -10 -8 4 -15 1 -15 -6 0 -6 -4 -8
-10 -5 -5 3 -10 1 -10 -4 0 -6 -9 -11 -20 -11 -10 0 -23 -7 -27 -15 -5 -8 -21
-16 -35 -17 -15 -1 -24 -6 -22 -10 3 -5 -8 -11 -25 -14 -17 -4 -31 -10 -31
-15 0 -5 -11 -9 -24 -9 -14 0 -28 -4 -31 -10 -4 -6 1 -7 11 -3 12 4 15 3 10
-5 -4 -7 -18 -12 -31 -12 -12 0 -25 -7 -29 -15 -3 -8 -9 -15 -13 -14 -4 1 -18
1 -30 0 -23 -1 -23 -3 -23 -126 0 -114 2 -125 20 -135 11 -6 20 -7 20 -3 0 4
7 -2 16 -13 8 -10 13 -14 10 -7 -5 8 0 8 19 0 14 -7 23 -17 21 -23 -3 -7 6
-10 21 -8 17 2 27 -4 33 -19 8 -21 9 -21 10 -2 1 19 1 19 11 2 6 -9 14 -15 20
-12 5 4 9 2 9 -3 0 -12 41 -30 63 -26 14 2 15 -1 8 -10 -8 -9 -7 -13 4 -14 8
-1 22 -3 30 -4 8 -1 12 -5 9 -10 -5 -8 9 -12 32 -9 7 1 14 -5 18 -14 3 -8 13
-15 23 -15 10 0 27 -7 37 -15 11 -8 28 -15 39 -15 10 0 15 -4 12 -10 -3 -5 3
-10 15 -10 14 0 19 -4 14 -12 -5 -8 0 -7 11 2 11 9 16 10 11 2 -7 -12 32 -34
47 -25 4 2 7 -3 7 -12 0 -11 5 -15 15 -11 8 3 29 -7 47 -22 18 -15 29 -21 24
-14 -4 6 -2 12 3 12 6 0 11 -7 11 -16 0 -8 4 -13 9 -9 5 3 12 1 16 -4 3 -6 12
-8 20 -4 9 3 15 -1 15 -9 0 -7 11 -15 26 -16 l25 -2 -3 122 c-3 110 -5 121
-22 124 -10 1 -22 7 -25 13 -4 6 -17 12 -29 14 -12 2 -25 7 -29 12 -5 4 -2 5
5 1 6 -4 12 -2 12 3 0 6 -15 11 -32 11 -19 0 -28 4 -21 8 8 5 3 11 -13 19 -18
8 -23 8 -18 0 3 -7 -1 -4 -9 6 -8 9 -22 17 -31 17 -9 0 -19 7 -23 16 -3 8 -12
13 -19 10 -8 -3 -14 1 -14 10 0 8 -4 13 -8 10 -5 -3 -18 4 -30 14 -12 11 -30
20 -42 20 -11 0 -20 7 -20 15 0 9 -9 15 -25 15 -14 0 -25 4 -25 9 0 5 -9 11
-20 14 -15 4 -18 10 -13 24 6 16 5 17 -13 3 -18 -14 -18 -14 -5 3 7 9 18 17
24 17 5 0 16 8 24 18 14 16 14 16 9 -1 -3 -11 -2 -16 4 -12 6 3 10 13 10 20 0
9 6 12 15 9 10 -4 15 0 15 12 0 16 2 17 10 4 8 -13 10 -13 10 2 0 11 5 15 14
12 7 -3 16 2 20 11 3 10 12 15 21 11 8 -3 19 2 24 11 4 9 19 17 32 18 13 1 23
8 22 14 -2 6 4 11 13 11 21 0 65 35 56 45 -4 5 -2 5 4 2 7 -4 23 2 37 13 14
11 34 20 45 20 12 0 24 4 27 10 4 6 -1 7 -12 4 -15 -5 -16 -4 -3 5 8 6 23 11
33 11 16 0 17 10 15 117 -3 121 -7 132 -46 116z"/>
<path d="M1760 1670 c0 -100 2 -120 15 -120 8 0 15 -5 15 -11 0 -5 5 -7 10 -4
6 3 10 1 10 -5 0 -6 4 -9 9 -5 5 3 12 1 16 -5 4 -6 12 -7 18 -3 7 4 6 -1 -2
-10 -12 -15 -12 -17 1 -12 9 4 22 -1 31 -9 9 -9 27 -17 41 -18 20 -2 23 -5 14
-16 -6 -7 -7 -12 -2 -11 26 5 45 -2 38 -13 -5 -8 -2 -8 10 1 14 12 17 12 14 1
-2 -8 6 -16 17 -18 11 -2 25 -10 31 -18 7 -8 18 -13 25 -12 8 2 13 -3 11 -9
-1 -8 8 -13 23 -13 16 0 25 -6 25 -15 0 -13 19 -20 43 -16 5 1 6 -3 3 -8 -4
-5 8 -12 25 -16 24 -5 28 -9 18 -16 -12 -7 -12 -10 -1 -18 11 -6 10 -10 -3
-15 -9 -3 -21 -4 -26 0 -5 3 -9 0 -9 -6 0 -6 -5 -8 -10 -5 -6 4 -9 1 -8 -6 2
-7 -1 -13 -7 -14 -19 -1 -85 -36 -85 -45 0 -6 -9 -10 -21 -10 -11 0 -17 -4
-14 -10 3 -5 -3 -10 -14 -10 -12 0 -21 -6 -21 -13 0 -7 -9 -13 -21 -14 -12 -1
-28 -10 -36 -20 -9 -11 -12 -12 -8 -3 5 12 4 12 -7 -1 -7 -9 -19 -14 -27 -11
-8 3 -11 0 -7 -7 5 -7 -1 -11 -14 -11 -16 0 -20 -5 -16 -15 3 -8 2 -14 -2 -14
-4 1 -19 1 -34 0 -20 -1 -26 -5 -21 -16 3 -9 2 -15 -3 -14 -43 7 -44 4 -44
-121 0 -120 0 -120 24 -120 13 0 26 7 30 15 3 8 17 15 31 15 18 0 24 4 19 12
-5 8 -2 9 9 5 10 -3 17 -2 17 3 0 6 9 10 21 10 11 0 17 4 14 10 -4 6 5 10 19
10 17 0 26 6 26 16 0 8 4 13 9 9 5 -3 12 -1 16 4 3 6 12 8 20 4 9 -3 15 1 15
11 0 10 6 13 15 10 8 -4 15 -1 15 6 0 6 5 8 10 5 6 -3 10 -3 10 2 0 9 91 49
103 45 5 -1 6 2 3 7 -8 12 30 25 46 15 8 -5 9 -2 5 9 -4 12 -1 17 11 17 9 0
26 7 36 15 11 8 30 15 43 15 13 0 22 5 20 12 -1 7 9 13 23 14 13 1 26 7 28 13
2 6 10 11 18 11 8 0 14 6 14 13 0 8 4 7 10 -3 8 -13 10 -12 10 3 0 10 8 17 21
17 13 0 18 4 13 13 -5 7 0 6 11 -3 11 -9 16 -10 11 -2 -5 8 2 14 23 18 l31 7
0 128 0 129 -29 0 c-17 0 -33 5 -37 12 -4 7 -3 8 4 4 7 -4 12 -2 12 3 0 10
-28 15 -67 14 -7 -1 -10 3 -8 8 7 11 -30 30 -40 21 -5 -4 -5 -1 -1 6 6 11 -5
17 -26 13 -5 0 -17 8 -27 18 -13 13 -28 18 -43 14 -18 -4 -20 -3 -8 6 8 6 12
11 8 12 -5 1 -12 3 -18 4 -5 1 -19 3 -31 4 -11 0 -17 6 -14 11 5 9 -15 15 -37
11 -5 0 -8 5 -8 13 0 8 -8 15 -17 15 -27 0 -52 6 -60 16 -4 4 -2 5 5 1 6 -4
12 -2 12 3 0 6 -9 11 -19 11 -11 0 -26 6 -33 13 -7 8 -19 12 -27 9 -8 -3 -18
3 -23 12 -5 9 -18 16 -29 16 -11 0 -22 6 -25 13 -2 7 -14 14 -27 14 -12 1 -23
7 -25 13 -2 5 -12 10 -22 10 -9 0 -23 7 -30 15 -7 8 -21 15 -32 15 -10 0 -16
5 -13 10 3 6 3 10 -2 11 -4 0 -20 3 -35 5 l-28 5 0 -121z"/>
<path d="M1121 1154 c0 -11 3 -14 6 -6 3 7 2 16 -1 19 -3 4 -6 -2 -5 -13z"/>
<path d="M1097 1071 c-4 -17 -3 -21 5 -13 5 5 8 16 6 23 -3 8 -7 3 -11 -10z"/>
</g>
</svg>
